<mxfile host="app.diagrams.net" agent="Mozilla/5.0 (Macintosh; Intel Mac OS X 10_15_7) AppleWebKit/537.36 (KHTML, like Gecko) Chrome/130.0.0.0 Safari/537.36" version="24.8.6">
  <diagram name="Page-1" id="ugOBHN1UPeRfj3JGBwjC">
    <mxGraphModel dx="1735" dy="1100" grid="1" gridSize="10" guides="1" tooltips="1" connect="1" arrows="1" fold="1" page="1" pageScale="1" pageWidth="850" pageHeight="1100" math="0" shadow="0">
      <root>
        <mxCell id="0" />
        <mxCell id="1" parent="0" />
        <mxCell id="znUXIphIMzQ43jXrhI__-3" style="edgeStyle=orthogonalEdgeStyle;rounded=0;orthogonalLoop=1;jettySize=auto;html=1;entryX=0.5;entryY=0;entryDx=0;entryDy=0;" parent="1" source="znUXIphIMzQ43jXrhI__-1" target="znUXIphIMzQ43jXrhI__-2" edge="1">
          <mxGeometry relative="1" as="geometry" />
        </mxCell>
        <mxCell id="znUXIphIMzQ43jXrhI__-1" value="Start" style="ellipse;whiteSpace=wrap;html=1;" parent="1" vertex="1">
          <mxGeometry x="100" y="20" width="120" height="80" as="geometry" />
        </mxCell>
        <mxCell id="znUXIphIMzQ43jXrhI__-7" style="edgeStyle=orthogonalEdgeStyle;rounded=0;orthogonalLoop=1;jettySize=auto;html=1;entryX=0;entryY=0.5;entryDx=0;entryDy=0;" parent="1" source="znUXIphIMzQ43jXrhI__-2" target="znUXIphIMzQ43jXrhI__-6" edge="1">
          <mxGeometry relative="1" as="geometry" />
        </mxCell>
        <mxCell id="znUXIphIMzQ43jXrhI__-2" value="Read input of force sensitive resistors" style="rounded=0;whiteSpace=wrap;html=1;" parent="1" vertex="1">
          <mxGeometry x="100" y="170" width="120" height="60" as="geometry" />
        </mxCell>
        <mxCell id="znUXIphIMzQ43jXrhI__-6" value="FSR Encoding" style="swimlane;whiteSpace=wrap;html=1;" parent="1" vertex="1">
          <mxGeometry x="310" y="100" width="200" height="200" as="geometry" />
        </mxCell>
        <mxCell id="znUXIphIMzQ43jXrhI__-43" value="1 and 2: Toggle Sprint&lt;br&gt;&lt;div&gt;1 xor 2: Move Forward&lt;/div&gt;&lt;div&gt;5 and 6: No Movement&lt;/div&gt;&lt;div&gt;(0 or 3) and 5 and 6: Toggle Crouch&lt;/div&gt;&lt;div&gt;8 xor 9: Walk Backwards&lt;/div&gt;&lt;div&gt;8 and 9: Turn Around 180 Degrees&lt;br&gt;&lt;/div&gt;&lt;div&gt;4 and (5 or 6): Walk Left&lt;/div&gt;&lt;div&gt;7 and (5 or 6): Walk Right&lt;/div&gt;&lt;div&gt;(1 or 2) and 4: Strafe Left&lt;/div&gt;&lt;div&gt;(1 or 2) and 7: Strafe Right&lt;br&gt;&lt;/div&gt;&lt;div&gt;&lt;br&gt;&lt;/div&gt;" style="text;html=1;align=center;verticalAlign=middle;whiteSpace=wrap;rounded=0;fontFamily=Helvetica;fontSize=12;fontColor=default;" parent="znUXIphIMzQ43jXrhI__-6" vertex="1">
          <mxGeometry y="30" width="200" height="170" as="geometry" />
        </mxCell>
        <mxCell id="znUXIphIMzQ43jXrhI__-22" value="" style="rounded=0;whiteSpace=wrap;html=1;fillColor=none;" parent="1" vertex="1">
          <mxGeometry x="600" y="200" width="200" height="120" as="geometry" />
        </mxCell>
        <mxCell id="znUXIphIMzQ43jXrhI__-23" value="" style="endArrow=none;html=1;rounded=0;exitX=0.5;exitY=1;exitDx=0;exitDy=0;entryX=0.5;entryY=0;entryDx=0;entryDy=0;" parent="1" source="znUXIphIMzQ43jXrhI__-22" target="znUXIphIMzQ43jXrhI__-22" edge="1">
          <mxGeometry width="50" height="50" relative="1" as="geometry">
            <mxPoint x="730" y="240" as="sourcePoint" />
            <mxPoint x="780" y="190" as="targetPoint" />
          </mxGeometry>
        </mxCell>
        <mxCell id="znUXIphIMzQ43jXrhI__-24" value="" style="endArrow=none;html=1;rounded=0;exitX=0;exitY=0.5;exitDx=0;exitDy=0;entryX=1;entryY=0.5;entryDx=0;entryDy=0;" parent="1" edge="1">
          <mxGeometry width="50" height="50" relative="1" as="geometry">
            <mxPoint x="600" y="240" as="sourcePoint" />
            <mxPoint x="800" y="240" as="targetPoint" />
          </mxGeometry>
        </mxCell>
        <mxCell id="znUXIphIMzQ43jXrhI__-25" value="" style="endArrow=none;html=1;rounded=0;exitX=0.75;exitY=1;exitDx=0;exitDy=0;entryX=0.75;entryY=0;entryDx=0;entryDy=0;" parent="1" source="znUXIphIMzQ43jXrhI__-22" target="znUXIphIMzQ43jXrhI__-22" edge="1">
          <mxGeometry width="50" height="50" relative="1" as="geometry">
            <mxPoint x="730" y="290" as="sourcePoint" />
            <mxPoint x="780" y="240" as="targetPoint" />
          </mxGeometry>
        </mxCell>
        <mxCell id="znUXIphIMzQ43jXrhI__-26" value="" style="endArrow=none;html=1;rounded=0;exitX=0.25;exitY=1;exitDx=0;exitDy=0;entryX=0.25;entryY=0;entryDx=0;entryDy=0;" parent="1" source="znUXIphIMzQ43jXrhI__-22" target="znUXIphIMzQ43jXrhI__-22" edge="1">
          <mxGeometry width="50" height="50" relative="1" as="geometry">
            <mxPoint x="730" y="290" as="sourcePoint" />
            <mxPoint x="780" y="240" as="targetPoint" />
          </mxGeometry>
        </mxCell>
        <mxCell id="znUXIphIMzQ43jXrhI__-27" value="" style="endArrow=none;html=1;rounded=0;exitX=0;exitY=0.75;exitDx=0;exitDy=0;entryX=1;entryY=0.75;entryDx=0;entryDy=0;" parent="1" edge="1">
          <mxGeometry width="50" height="50" relative="1" as="geometry">
            <mxPoint x="600" y="280" as="sourcePoint" />
            <mxPoint x="800" y="280" as="targetPoint" />
          </mxGeometry>
        </mxCell>
        <mxCell id="znUXIphIMzQ43jXrhI__-28" value="&lt;font style=&quot;font-size: 10px;&quot;&gt;0-Crouch&lt;/font&gt;" style="text;html=1;align=center;verticalAlign=middle;whiteSpace=wrap;rounded=0;" parent="1" vertex="1">
          <mxGeometry x="600" y="210" width="50" height="20" as="geometry" />
        </mxCell>
        <mxCell id="znUXIphIMzQ43jXrhI__-30" value="&lt;font style=&quot;font-size: 10px;&quot;&gt;3-Crouch&lt;/font&gt;" style="text;html=1;align=center;verticalAlign=middle;whiteSpace=wrap;rounded=0;" parent="1" vertex="1">
          <mxGeometry x="750" y="210" width="50" height="20" as="geometry" />
        </mxCell>
        <mxCell id="znUXIphIMzQ43jXrhI__-32" value="&lt;font style=&quot;font-size: 10px;&quot;&gt;1-Forward (W)&lt;br&gt;&lt;/font&gt;" style="text;html=1;align=center;verticalAlign=middle;whiteSpace=wrap;rounded=0;" parent="1" vertex="1">
          <mxGeometry x="650" y="210" width="50" height="20" as="geometry" />
        </mxCell>
        <mxCell id="znUXIphIMzQ43jXrhI__-33" value="&lt;font style=&quot;font-size: 10px;&quot;&gt;2-Forward (W)&lt;/font&gt;" style="text;html=1;align=center;verticalAlign=middle;whiteSpace=wrap;rounded=0;" parent="1" vertex="1">
          <mxGeometry x="700" y="210" width="50" height="20" as="geometry" />
        </mxCell>
        <mxCell id="znUXIphIMzQ43jXrhI__-34" value="&lt;font style=&quot;font-size: 10px;&quot;&gt;4-Left (A)&lt;/font&gt;" style="text;html=1;align=center;verticalAlign=middle;whiteSpace=wrap;rounded=0;" parent="1" vertex="1">
          <mxGeometry x="600" y="250" width="50" height="20" as="geometry" />
        </mxCell>
        <mxCell id="znUXIphIMzQ43jXrhI__-35" value="&lt;font style=&quot;font-size: 10px;&quot;&gt;5-Center&lt;/font&gt;" style="text;html=1;align=center;verticalAlign=middle;whiteSpace=wrap;rounded=0;" parent="1" vertex="1">
          <mxGeometry x="650" y="250" width="50" height="20" as="geometry" />
        </mxCell>
        <mxCell id="znUXIphIMzQ43jXrhI__-36" value="&lt;font style=&quot;font-size: 10px;&quot;&gt;6-Center&lt;/font&gt;" style="text;html=1;align=center;verticalAlign=middle;whiteSpace=wrap;rounded=0;" parent="1" vertex="1">
          <mxGeometry x="700" y="250" width="50" height="20" as="geometry" />
        </mxCell>
        <mxCell id="znUXIphIMzQ43jXrhI__-37" value="&lt;font style=&quot;font-size: 10px;&quot;&gt;7-Right (D)&lt;/font&gt;" style="text;html=1;align=center;verticalAlign=middle;whiteSpace=wrap;rounded=0;" parent="1" vertex="1">
          <mxGeometry x="750" y="250" width="50" height="20" as="geometry" />
        </mxCell>
        <mxCell id="znUXIphIMzQ43jXrhI__-38" value="&lt;font style=&quot;font-size: 10px;&quot;&gt;NULL&lt;/font&gt;" style="text;html=1;align=center;verticalAlign=middle;whiteSpace=wrap;rounded=0;" parent="1" vertex="1">
          <mxGeometry x="600" y="290" width="50" height="20" as="geometry" />
        </mxCell>
        <mxCell id="znUXIphIMzQ43jXrhI__-39" value="&lt;font style=&quot;font-size: 10px;&quot;&gt;8-Back (S)&lt;/font&gt;" style="text;html=1;align=center;verticalAlign=middle;whiteSpace=wrap;rounded=0;fontFamily=Helvetica;fontSize=12;fontColor=default;" parent="1" vertex="1">
          <mxGeometry x="650" y="285" width="50" height="30" as="geometry" />
        </mxCell>
        <mxCell id="znUXIphIMzQ43jXrhI__-40" value="&lt;font style=&quot;font-size: 10px;&quot;&gt;9-Back (S)&lt;br&gt;&lt;/font&gt;" style="text;html=1;align=center;verticalAlign=middle;whiteSpace=wrap;rounded=0;" parent="1" vertex="1">
          <mxGeometry x="700" y="290" width="50" height="20" as="geometry" />
        </mxCell>
        <mxCell id="znUXIphIMzQ43jXrhI__-42" value="&lt;font style=&quot;font-size: 10px;&quot;&gt;NULL&lt;/font&gt;" style="text;html=1;align=center;verticalAlign=middle;whiteSpace=wrap;rounded=0;" parent="1" vertex="1">
          <mxGeometry x="750" y="290" width="50" height="20" as="geometry" />
        </mxCell>
        <mxCell id="znUXIphIMzQ43jXrhI__-47" style="edgeStyle=orthogonalEdgeStyle;rounded=0;orthogonalLoop=1;jettySize=auto;html=1;entryX=0.5;entryY=0;entryDx=0;entryDy=0;fontFamily=Helvetica;fontSize=12;fontColor=default;" parent="1" source="znUXIphIMzQ43jXrhI__-44" target="znUXIphIMzQ43jXrhI__-46" edge="1">
          <mxGeometry relative="1" as="geometry" />
        </mxCell>
        <mxCell id="znUXIphIMzQ43jXrhI__-44" value="Determine corresponding keyboard input" style="rounded=0;whiteSpace=wrap;html=1;align=center;verticalAlign=middle;fontFamily=Helvetica;fontSize=12;fontColor=default;fillColor=none;gradientColor=none;" parent="1" vertex="1">
          <mxGeometry x="350" y="350" width="120" height="60" as="geometry" />
        </mxCell>
        <mxCell id="znUXIphIMzQ43jXrhI__-45" style="edgeStyle=orthogonalEdgeStyle;rounded=0;orthogonalLoop=1;jettySize=auto;html=1;entryX=0.5;entryY=0;entryDx=0;entryDy=0;fontFamily=Helvetica;fontSize=12;fontColor=default;" parent="1" source="znUXIphIMzQ43jXrhI__-43" target="znUXIphIMzQ43jXrhI__-44" edge="1">
          <mxGeometry relative="1" as="geometry" />
        </mxCell>
        <mxCell id="znUXIphIMzQ43jXrhI__-50" style="edgeStyle=orthogonalEdgeStyle;rounded=0;orthogonalLoop=1;jettySize=auto;html=1;entryX=1;entryY=0.5;entryDx=0;entryDy=0;fontFamily=Helvetica;fontSize=12;fontColor=default;" parent="1" source="znUXIphIMzQ43jXrhI__-46" target="znUXIphIMzQ43jXrhI__-49" edge="1">
          <mxGeometry relative="1" as="geometry" />
        </mxCell>
        <mxCell id="znUXIphIMzQ43jXrhI__-46" value="Send keyboard input through usb" style="rounded=0;whiteSpace=wrap;html=1;align=center;verticalAlign=middle;fontFamily=Helvetica;fontSize=12;fontColor=default;fillColor=none;gradientColor=none;" parent="1" vertex="1">
          <mxGeometry x="350" y="450" width="120" height="60" as="geometry" />
        </mxCell>
        <mxCell id="znUXIphIMzQ43jXrhI__-51" style="edgeStyle=orthogonalEdgeStyle;rounded=0;orthogonalLoop=1;jettySize=auto;html=1;entryX=0.5;entryY=1;entryDx=0;entryDy=0;fontFamily=Helvetica;fontSize=12;fontColor=default;" parent="1" source="znUXIphIMzQ43jXrhI__-49" target="znUXIphIMzQ43jXrhI__-2" edge="1">
          <mxGeometry relative="1" as="geometry" />
        </mxCell>
        <mxCell id="znUXIphIMzQ43jXrhI__-49" value="Light up corresponding LEDs on pad" style="rounded=0;whiteSpace=wrap;html=1;align=center;verticalAlign=middle;fontFamily=Helvetica;fontSize=12;fontColor=default;fillColor=none;gradientColor=none;" parent="1" vertex="1">
          <mxGeometry x="100" y="450" width="120" height="60" as="geometry" />
        </mxCell>
        <mxCell id="wF0RQOkx4R9PMtmohDRf-3" value="Start" style="ellipse;whiteSpace=wrap;html=1;" vertex="1" parent="1">
          <mxGeometry x="100" y="650" width="120" height="80" as="geometry" />
        </mxCell>
        <mxCell id="wF0RQOkx4R9PMtmohDRf-4" value="Initialize&amp;nbsp;&lt;div&gt;accelerometer&lt;/div&gt;" style="rounded=0;whiteSpace=wrap;html=1;" vertex="1" parent="1">
          <mxGeometry x="100" y="760" width="120" height="60" as="geometry" />
        </mxCell>
        <mxCell id="wF0RQOkx4R9PMtmohDRf-6" value="Gun Control" style="text;html=1;align=center;verticalAlign=middle;resizable=0;points=[];autosize=1;strokeColor=none;fillColor=none;" vertex="1" parent="1">
          <mxGeometry x="115" y="610" width="90" height="30" as="geometry" />
        </mxCell>
        <mxCell id="wF0RQOkx4R9PMtmohDRf-7" value="Set up&amp;nbsp;&lt;span style=&quot;background-color: initial;&quot;&gt;button pins&lt;/span&gt;" style="rounded=0;whiteSpace=wrap;html=1;" vertex="1" parent="1">
          <mxGeometry x="100" y="850" width="120" height="60" as="geometry" />
        </mxCell>
        <mxCell id="wF0RQOkx4R9PMtmohDRf-19" style="edgeStyle=orthogonalEdgeStyle;rounded=0;orthogonalLoop=1;jettySize=auto;html=1;entryX=0.5;entryY=0;entryDx=0;entryDy=0;" edge="1" parent="1" source="wF0RQOkx4R9PMtmohDRf-14" target="wF0RQOkx4R9PMtmohDRf-15">
          <mxGeometry relative="1" as="geometry" />
        </mxCell>
        <mxCell id="wF0RQOkx4R9PMtmohDRf-14" value="Main program loop" style="rounded=0;whiteSpace=wrap;html=1;" vertex="1" parent="1">
          <mxGeometry x="100" y="940" width="120" height="60" as="geometry" />
        </mxCell>
        <mxCell id="wF0RQOkx4R9PMtmohDRf-20" style="edgeStyle=orthogonalEdgeStyle;rounded=0;orthogonalLoop=1;jettySize=auto;html=1;entryX=0.5;entryY=0;entryDx=0;entryDy=0;" edge="1" parent="1" source="wF0RQOkx4R9PMtmohDRf-15" target="wF0RQOkx4R9PMtmohDRf-16">
          <mxGeometry relative="1" as="geometry" />
        </mxCell>
        <mxCell id="wF0RQOkx4R9PMtmohDRf-15" value="Read&amp;nbsp;&lt;span style=&quot;background-color: initial;&quot;&gt;data from accelerometer&lt;/span&gt;" style="rounded=0;whiteSpace=wrap;html=1;" vertex="1" parent="1">
          <mxGeometry x="100" y="1030" width="120" height="60" as="geometry" />
        </mxCell>
        <mxCell id="wF0RQOkx4R9PMtmohDRf-21" style="edgeStyle=orthogonalEdgeStyle;rounded=0;orthogonalLoop=1;jettySize=auto;html=1;entryX=0.5;entryY=0;entryDx=0;entryDy=0;" edge="1" parent="1" source="wF0RQOkx4R9PMtmohDRf-16" target="wF0RQOkx4R9PMtmohDRf-17">
          <mxGeometry relative="1" as="geometry" />
        </mxCell>
        <mxCell id="wF0RQOkx4R9PMtmohDRf-16" value="Calculate mouse movement" style="rounded=0;whiteSpace=wrap;html=1;" vertex="1" parent="1">
          <mxGeometry x="100" y="1120" width="120" height="60" as="geometry" />
        </mxCell>
        <mxCell id="wF0RQOkx4R9PMtmohDRf-18" style="edgeStyle=orthogonalEdgeStyle;rounded=0;orthogonalLoop=1;jettySize=auto;html=1;entryX=0;entryY=0.5;entryDx=0;entryDy=0;" edge="1" parent="1" source="wF0RQOkx4R9PMtmohDRf-17" target="wF0RQOkx4R9PMtmohDRf-14">
          <mxGeometry relative="1" as="geometry">
            <Array as="points">
              <mxPoint x="60" y="1240" />
              <mxPoint x="60" y="970" />
            </Array>
          </mxGeometry>
        </mxCell>
        <mxCell id="wF0RQOkx4R9PMtmohDRf-17" value="Check button" style="rounded=0;whiteSpace=wrap;html=1;" vertex="1" parent="1">
          <mxGeometry x="100" y="1210" width="120" height="60" as="geometry" />
        </mxCell>
        <mxCell id="wF0RQOkx4R9PMtmohDRf-22" value="If trigger&amp;nbsp;&lt;div&gt;button is (held)&lt;/div&gt;&lt;div&gt;&lt;span style=&quot;background-color: initial;&quot;&gt;/ pressed&lt;/span&gt;&lt;/div&gt;" style="strokeWidth=2;html=1;shape=mxgraph.flowchart.decision;whiteSpace=wrap;" vertex="1" parent="1">
          <mxGeometry x="110" y="1430" width="100" height="100" as="geometry" />
        </mxCell>
        <mxCell id="wF0RQOkx4R9PMtmohDRf-35" style="edgeStyle=orthogonalEdgeStyle;rounded=0;orthogonalLoop=1;jettySize=auto;html=1;entryX=0;entryY=0.5;entryDx=0;entryDy=0;" edge="1" parent="1" source="wF0RQOkx4R9PMtmohDRf-23" target="wF0RQOkx4R9PMtmohDRf-34">
          <mxGeometry relative="1" as="geometry" />
        </mxCell>
        <mxCell id="wF0RQOkx4R9PMtmohDRf-23" value="Fire" style="rounded=0;whiteSpace=wrap;html=1;" vertex="1" parent="1">
          <mxGeometry x="470" y="1460" width="120" height="60" as="geometry" />
        </mxCell>
        <mxCell id="wF0RQOkx4R9PMtmohDRf-29" style="edgeStyle=orthogonalEdgeStyle;rounded=0;orthogonalLoop=1;jettySize=auto;html=1;entryX=0;entryY=0.5;entryDx=0;entryDy=0;" edge="1" parent="1" source="wF0RQOkx4R9PMtmohDRf-25" target="wF0RQOkx4R9PMtmohDRf-26">
          <mxGeometry relative="1" as="geometry" />
        </mxCell>
        <mxCell id="wF0RQOkx4R9PMtmohDRf-25" value="If menu&amp;nbsp;&lt;div&gt;button&amp;nbsp;&lt;span style=&quot;background-color: initial;&quot;&gt;clicked&lt;/span&gt;&lt;/div&gt;" style="strokeWidth=2;html=1;shape=mxgraph.flowchart.decision;whiteSpace=wrap;" vertex="1" parent="1">
          <mxGeometry x="110" y="1300" width="100" height="100" as="geometry" />
        </mxCell>
        <mxCell id="wF0RQOkx4R9PMtmohDRf-26" value="Open menu&amp;nbsp;&lt;div&gt;space&lt;/div&gt;" style="rounded=0;whiteSpace=wrap;html=1;" vertex="1" parent="1">
          <mxGeometry x="240" y="1320" width="120" height="60" as="geometry" />
        </mxCell>
        <mxCell id="wF0RQOkx4R9PMtmohDRf-31" style="edgeStyle=orthogonalEdgeStyle;rounded=0;orthogonalLoop=1;jettySize=auto;html=1;entryX=0;entryY=0.5;entryDx=0;entryDy=0;" edge="1" parent="1" source="wF0RQOkx4R9PMtmohDRf-27" target="wF0RQOkx4R9PMtmohDRf-28">
          <mxGeometry relative="1" as="geometry" />
        </mxCell>
        <mxCell id="wF0RQOkx4R9PMtmohDRf-27" value="If menu&amp;nbsp;&lt;div&gt;button&amp;nbsp;&lt;span style=&quot;background-color: initial;&quot;&gt;clicked&lt;/span&gt;&lt;/div&gt;&lt;div&gt;AGAIN&lt;/div&gt;" style="strokeWidth=2;html=1;shape=mxgraph.flowchart.decision;whiteSpace=wrap;" vertex="1" parent="1">
          <mxGeometry x="385" y="1300" width="100" height="100" as="geometry" />
        </mxCell>
        <mxCell id="wF0RQOkx4R9PMtmohDRf-33" style="edgeStyle=orthogonalEdgeStyle;rounded=0;orthogonalLoop=1;jettySize=auto;html=1;entryX=1;entryY=0.5;entryDx=0;entryDy=0;" edge="1" parent="1" source="wF0RQOkx4R9PMtmohDRf-28" target="wF0RQOkx4R9PMtmohDRf-17">
          <mxGeometry relative="1" as="geometry">
            <Array as="points">
              <mxPoint x="570" y="1240" />
            </Array>
          </mxGeometry>
        </mxCell>
        <mxCell id="wF0RQOkx4R9PMtmohDRf-28" value="Close menu&lt;div&gt;space&lt;/div&gt;" style="rounded=0;whiteSpace=wrap;html=1;" vertex="1" parent="1">
          <mxGeometry x="510" y="1320" width="120" height="60" as="geometry" />
        </mxCell>
        <mxCell id="wF0RQOkx4R9PMtmohDRf-30" style="edgeStyle=orthogonalEdgeStyle;rounded=0;orthogonalLoop=1;jettySize=auto;html=1;entryX=0;entryY=0.5;entryDx=0;entryDy=0;entryPerimeter=0;" edge="1" parent="1" source="wF0RQOkx4R9PMtmohDRf-26" target="wF0RQOkx4R9PMtmohDRf-27">
          <mxGeometry relative="1" as="geometry" />
        </mxCell>
        <mxCell id="wF0RQOkx4R9PMtmohDRf-32" style="edgeStyle=orthogonalEdgeStyle;rounded=0;orthogonalLoop=1;jettySize=auto;html=1;entryX=0.5;entryY=0;entryDx=0;entryDy=0;entryPerimeter=0;" edge="1" parent="1" source="wF0RQOkx4R9PMtmohDRf-17" target="wF0RQOkx4R9PMtmohDRf-25">
          <mxGeometry relative="1" as="geometry" />
        </mxCell>
        <mxCell id="wF0RQOkx4R9PMtmohDRf-38" style="edgeStyle=orthogonalEdgeStyle;rounded=0;orthogonalLoop=1;jettySize=auto;html=1;entryX=0;entryY=0.5;entryDx=0;entryDy=0;" edge="1" parent="1" source="wF0RQOkx4R9PMtmohDRf-34" target="wF0RQOkx4R9PMtmohDRf-36">
          <mxGeometry relative="1" as="geometry" />
        </mxCell>
        <mxCell id="wF0RQOkx4R9PMtmohDRf-34" value="Read&amp;nbsp;&lt;span style=&quot;background-color: initial;&quot;&gt;data from accelerometer&lt;/span&gt;" style="rounded=0;whiteSpace=wrap;html=1;" vertex="1" parent="1">
          <mxGeometry x="620" y="1460" width="120" height="60" as="geometry" />
        </mxCell>
        <mxCell id="wF0RQOkx4R9PMtmohDRf-36" value="Calculate mouse movement" style="rounded=0;whiteSpace=wrap;html=1;" vertex="1" parent="1">
          <mxGeometry x="770" y="1460" width="120" height="60" as="geometry" />
        </mxCell>
        <mxCell id="wF0RQOkx4R9PMtmohDRf-43" style="edgeStyle=orthogonalEdgeStyle;rounded=0;orthogonalLoop=1;jettySize=auto;html=1;entryX=0.5;entryY=0;entryDx=0;entryDy=0;" edge="1" parent="1" source="wF0RQOkx4R9PMtmohDRf-39" target="wF0RQOkx4R9PMtmohDRf-40">
          <mxGeometry relative="1" as="geometry" />
        </mxCell>
        <mxCell id="wF0RQOkx4R9PMtmohDRf-39" value="If&amp;nbsp;&lt;div&gt;no&amp;nbsp;&lt;/div&gt;&lt;div&gt;ammo&lt;/div&gt;" style="strokeWidth=2;html=1;shape=mxgraph.flowchart.decision;whiteSpace=wrap;" vertex="1" parent="1">
          <mxGeometry x="575" y="1540" width="100" height="100" as="geometry" />
        </mxCell>
        <mxCell id="wF0RQOkx4R9PMtmohDRf-40" value="Reload&amp;nbsp;" style="rounded=0;whiteSpace=wrap;html=1;" vertex="1" parent="1">
          <mxGeometry x="565" y="1680" width="120" height="60" as="geometry" />
        </mxCell>
        <mxCell id="wF0RQOkx4R9PMtmohDRf-44" value="Check for ammo" style="rounded=0;whiteSpace=wrap;html=1;" vertex="1" parent="1">
          <mxGeometry x="250" y="1450" width="120" height="60" as="geometry" />
        </mxCell>
      </root>
    </mxGraphModel>
  </diagram>
</mxfile>
